<svg width="64" height="64" viewBox="0 0 64 64" fill="none" xmlns="http://www.w3.org/2000/svg">
  <!-- Favicon version - Simplified builder icon -->
  <rect width="64" height="64" rx="12" fill="#F15A24"/>
  
  <!-- Head circle -->
  <circle cx="32" cy="36" r="16" stroke="#FFF7EA" stroke-width="3" fill="none"/>
  
  <!-- Left ear -->
  <path d="M 18 36 Q 16 36 16 38 Q 16 40 18 40" stroke="#FFF7EA" stroke-width="3" fill="none" stroke-linecap="round"/>
  
  <!-- Right ear -->
  <path d="M 46 36 Q 48 36 48 38 Q 48 40 46 40" stroke="#FFF7EA" stroke-width="3" fill="none" stroke-linecap="round"/>
  
  <!-- Construction helmet -->
  <path d="M 21 29 Q 21 16 32 16 Q 43 16 43 29" stroke="#FFF7EA" stroke-width="3" fill="none" stroke-linecap="round"/>
  
  <!-- Helmet divider -->
  <line x1="25" y1="16" x2="32" y2="24" stroke="#FFF7EA" stroke-width="3" stroke-linecap="round"/>
  <path d="M 32 24 Q 37 19 39 16" stroke="#FFF7EA" stroke-width="3" fill="none" stroke-linecap="round"/>
  
  <!-- Helmet brim -->
  <line x1="16" y1="30" x2="48" y2="30" stroke="#FFF7EA" stroke-width="3" stroke-linecap="round"/>
  
  <!-- Eyes -->
  <ellipse cx="26" cy="36" rx="2.5" ry="3.5" fill="#FFF7EA"/>
  <ellipse cx="38" cy="36" rx="2.5" ry="3.5" fill="#FFF7EA"/>
  
  <!-- Smile -->
  <path d="M 26 43 Q 32 47 38 43" stroke="#FFF7EA" stroke-width="3" fill="none" stroke-linecap="round"/>
</svg>

